<svg width="172" height="43" viewBox="0 0 172 43" fill="none" xmlns="http://www.w3.org/2000/svg">
<g clip-path="url(#clip0_149_1195)">
<path d="M141.567 2.28394H29.8398C25.2885 2.28394 21.5989 5.97353 21.5989 10.5249V32.4751C21.5989 37.0264 25.2885 40.716 29.8398 40.716H141.567C146.119 40.716 149.808 37.0264 149.808 32.4751V10.5249C149.808 5.97353 146.119 2.28394 141.567 2.28394Z" stroke="#B8B8B8" stroke-width="4.56792" stroke-miterlimit="10"/>
<path d="M164.347 27.5392C156.841 27.5392 150.758 24.8984 150.758 21.6372C150.758 18.3759 156.841 15.7351 164.347 15.7351C171.852 15.7351 171.852 27.5392 164.347 27.5392Z" stroke="#B8B8B8" stroke-width="3.2832" stroke-miterlimit="10"/>
<path d="M7.27468 27.5392C14.7799 27.5392 20.8632 24.8984 20.8632 21.6372C20.8632 18.3759 14.7799 15.7351 7.27468 15.7351C-0.230557 15.7351 -0.230557 27.5392 7.27468 27.5392Z" stroke="#B8B8B8" stroke-width="3.29418" stroke-miterlimit="10"/>
</g>
<defs>
<clipPath id="clip0_149_1195">
<rect width="171.616" height="43" fill="white"/>
</clipPath>
</defs>
</svg>
