<svg width="203" height="169" viewBox="0 0 203 169" fill="none" xmlns="http://www.w3.org/2000/svg">
<g clip-path="url(#clip0_302_1290)">
<path d="M190.604 136.007C208.945 103.403 182.813 53.9069 132.237 25.4548C81.6596 -2.9973 28.5858 3.81995 10.2443 36.4241C-8.09725 69.0282 35.9302 111.553 86.5071 140.005C137.084 168.457 172.262 168.611 190.604 136.007Z" stroke="#B85C38" stroke-width="12.2864" stroke-miterlimit="10"/>
<path d="M106.434 87.1777C121.808 75.3341 131.965 62.7391 129.12 59.0462C126.275 55.3533 111.506 61.9608 96.1318 73.8044C80.758 85.6481 70.6014 98.243 73.4463 101.936C76.2913 105.629 91.0605 99.0214 106.434 87.1777Z" fill="#B85C38"/>
<path d="M69.2695 59.8118C82.9769 49.2518 91.7826 37.6976 88.9377 34.0047C86.0927 30.3117 72.6744 35.8785 58.967 46.4385C45.2596 56.9984 36.4538 68.5526 39.2988 72.2455C42.1438 75.9385 55.5621 70.3717 69.2695 59.8118Z" fill="#B85C38"/>
<path d="M142.118 114.448C155.825 103.888 164.631 92.3337 161.786 88.6407C158.941 84.9478 145.522 90.5146 131.815 101.075C118.108 111.634 109.302 123.189 112.147 126.882C114.992 130.575 128.41 125.008 142.118 114.448Z" fill="#B85C38"/>
</g>
<defs>
<clipPath id="clip0_302_1290">
<rect width="202.609" height="168.461" fill="white"/>
</clipPath>
</defs>
</svg>
